<svg width="52" height="52" viewBox="0 0 52 52" fill="none" xmlns="http://www.w3.org/2000/svg">
<path d="M4.35856 37.8805C2.0765 28.729 0.935481 24.1533 3.3316 21.0767C5.72771 17.9999 10.4323 17.9999 19.8414 17.9999H32.1586C41.5677 17.9999 46.2722 17.9999 48.6683 21.0767C51.0646 24.1533 49.9235 28.729 47.6416 37.8805C46.1901 43.701 45.4642 46.6111 43.2998 48.3055C41.1352 49.9999 38.1431 49.9999 32.1586 49.9999H19.8414C13.857 49.9999 10.8648 49.9999 8.70028 48.3055C6.53571 46.6111 5.80998 43.701 4.35856 37.8805Z" stroke="white" stroke-width="3"/>
<path d="M45.9492 19.3335L44.0596 12.3859C43.3311 9.70694 42.9667 8.36748 42.2195 7.3587C41.4753 6.35409 40.464 5.57972 39.3016 5.1242C38.1342 4.66681 36.7494 4.66681 33.9797 4.66681M6.05078 19.3335L7.94037 12.3859C8.66897 9.70694 9.03327 8.36748 9.78052 7.3587C10.5247 6.35409 11.5359 5.57972 12.6984 5.1242C13.8658 4.66681 15.2506 4.66681 18.0203 4.66681" stroke="white" stroke-width="3"/>
<path d="M18.0215 4.66667C18.0215 3.19392 19.2124 2 20.6814 2H31.321C32.79 2 33.9809 3.19392 33.9809 4.66667C33.9809 6.13941 32.79 7.33333 31.321 7.33333H20.6814C19.2124 7.33333 18.0215 6.13941 18.0215 4.66667Z" stroke="white" stroke-width="3"/>
<path d="M15.3613 28.6666V39.3333" stroke="white" stroke-width="3" stroke-linecap="round" stroke-linejoin="round"/>
<path d="M36.6406 28.6666V39.3333" stroke="white" stroke-width="3" stroke-linecap="round" stroke-linejoin="round"/>
<path d="M26.001 28.6666V39.3333" stroke="white" stroke-width="3" stroke-linecap="round" stroke-linejoin="round"/>
</svg>
