<svg width="243" height="125" viewBox="0 0 243 125" fill="none" xmlns="http://www.w3.org/2000/svg">
<g id="Logo Horizontal">
<g id="Group">
<path id="Vector" d="M147.864 98.9111C137.472 88.8926 127.406 78.5407 117.445 68.0909C114.142 64.5945 110.807 61.1308 107.543 57.6018C106.961 56.9744 106.987 56.0006 107.595 55.3994L114.724 48.3021C131.435 31.879 148.401 15.4755 165.994 0C150.284 17.3773 133.659 34.1337 117.007 50.6221L109.813 57.654L109.865 55.4517C122.821 69.6789 135.621 84.05 147.864 98.9111Z" fill="black"/>
<path id="Vector_2" d="M93.2523 58.1637L0 56.5299L93.2523 54.8961C95.4367 54.9157 95.4563 58.1376 93.2523 58.1637Z" fill="black"/>
<path id="Vector_3" d="M149.748 54.8961L243 56.5299L149.748 58.1637C147.563 58.1441 147.544 54.9223 149.748 54.8961Z" fill="black"/>
</g>
<g id="Group_2">
<path id="Vector_4" d="M83.6444 105.865H85.7373L79.3605 123.837H77.2676L83.6444 105.865ZM78.1832 105.865H91.0873L91.0154 106.146H78.0917L78.1832 105.865Z" fill="black"/>
<path id="Vector_5" d="M91.5321 111.322L93.6773 111.041L89.0598 123.837H87.0127L91.5321 111.322ZM92.7551 108.008C92.7551 107.302 93.3176 106.76 94.0239 106.76C94.7303 106.76 95.247 107.302 95.247 108.008C95.247 108.714 94.7041 109.23 94.0239 109.23C93.3438 109.23 92.7551 108.688 92.7551 108.008Z" fill="black"/>
<path id="Vector_6" d="M97.7716 111.42L99.9364 111.067L96.2411 120.876L95.1096 123.843H93.0625L97.7716 111.426V111.42ZM98.3144 117.131C100.388 113.792 102.762 111.014 105.26 111.014C106.836 111.014 107.804 112.635 106.411 116.328L103.54 123.83H101.493L104.318 116.373C105.522 113.223 105.496 111.694 104.292 111.694C102.572 111.694 100.407 114.328 98.5695 117.249C97.0129 119.693 95.744 122.353 95.1554 123.837H94.8742C95.744 121.673 96.9671 119.275 98.3144 117.131ZM106.693 117.131C108.766 113.792 111.14 111.014 113.638 111.014C115.215 111.014 116.202 112.635 114.79 116.328L111.938 123.83H109.865L112.716 116.373C113.894 113.223 113.894 111.694 112.67 111.694C110.95 111.694 108.785 114.328 106.948 117.249C105.391 119.693 104.122 122.353 103.534 123.837H103.252C104.122 121.673 105.345 119.275 106.693 117.131Z" fill="black"/>
<path id="Vector_7" d="M116.3 120.451C116.274 116.426 120.421 111.021 124.868 111.021C127.059 111.021 127.903 112.054 127.903 113.047C127.903 114.178 126.987 115.308 124.75 115.308L119.407 115.334L119.57 115.053H122.939C125.411 115.053 126.425 113.968 126.425 112.674C126.425 111.897 125.908 111.309 124.822 111.309C121.434 111.309 118.321 116.413 118.321 120.203C118.321 122.203 119.263 123.451 120.839 123.451C122.415 123.451 124.299 122.183 125.476 119.759L125.712 119.85C124.463 122.464 122.324 124.013 119.969 124.013C117.615 124.013 116.294 122.601 116.294 120.464L116.3 120.451Z" fill="black"/>
<path id="Vector_8" d="M133.39 105.865H135.509L129.133 123.837H127.013L133.39 105.865ZM127.746 123.556H137.962L137.87 123.837H127.654L127.746 123.556Z" fill="black"/>
<path id="Vector_9" d="M140.343 120.451C140.317 116.426 144.463 111.021 148.911 111.021C151.102 111.021 151.945 112.054 151.945 113.047C151.945 114.178 151.03 115.308 148.793 115.308L143.449 115.334L143.613 115.053H146.981C149.453 115.053 150.467 113.968 150.467 112.674C150.467 111.897 149.95 111.309 148.865 111.309C145.477 111.309 142.364 116.413 142.364 120.203C142.364 122.203 143.305 123.451 144.882 123.451C146.458 123.451 148.342 122.183 149.519 119.759L149.754 119.85C148.505 122.464 146.366 124.013 144.012 124.013C141.657 124.013 140.336 122.601 140.336 120.464L140.343 120.451Z" fill="black"/>
<path id="Vector_10" d="M151.03 121.203C151.03 120.732 151.101 120.216 151.265 119.647L151.546 119.674C151.383 120.19 151.311 120.66 151.311 121.111C151.311 122.686 152.37 123.725 154.326 123.725C156.798 123.725 158.401 121.915 158.401 120.033C158.401 118.785 157.387 118.34 156.308 117.844C155.157 117.327 153.979 116.785 153.979 115.164C153.979 113.4 155.601 111.001 158.407 111.001C160.317 111.001 161.141 111.988 161.141 113.21C161.141 114.034 160.644 114.949 160.245 115.373L160.036 115.21C160.552 114.648 160.86 113.825 160.86 113.21C160.86 112.223 160.153 111.282 158.433 111.282C156.406 111.282 155.065 112.622 155.065 114.034C155.065 115.184 156.033 115.654 157.092 116.125C158.296 116.667 159.565 117.184 159.565 118.831C159.565 121.138 157.707 124.007 154.293 124.007C152.246 124.007 151.043 122.922 151.043 121.209L151.03 121.203Z" fill="black"/>
<path id="Vector_11" d="M160.474 121.203C160.474 120.732 160.546 120.216 160.709 119.647L160.991 119.674C160.827 120.19 160.755 120.66 160.755 121.111C160.755 122.686 161.815 123.725 163.77 123.725C166.242 123.725 167.845 121.915 167.845 120.033C167.845 118.785 166.831 118.34 165.752 117.844C164.601 117.327 163.424 116.785 163.424 115.164C163.424 113.4 165.046 111.001 167.851 111.001C169.761 111.001 170.585 111.988 170.585 113.21C170.585 114.034 170.088 114.949 169.689 115.373L169.48 115.21C169.997 114.648 170.304 113.825 170.304 113.21C170.304 112.223 169.598 111.282 167.878 111.282C165.85 111.282 164.509 112.622 164.509 114.034C164.509 115.184 165.477 115.654 166.537 116.125C167.74 116.667 169.009 117.184 169.009 118.831C169.009 121.138 167.152 124.007 163.738 124.007C161.69 124.007 160.487 122.922 160.487 121.209L160.474 121.203Z" fill="black"/>
</g>
</g>
</svg>
