<?xml version="1.0" encoding="UTF-8"?>
<svg id="Calque_2" data-name="Calque 2" xmlns="http://www.w3.org/2000/svg" viewBox="0 0 533.33 466.67">
  <defs>
    <style>
      .cls-1 {
        fill: #fff;
      }
    </style>
  </defs>
  <g id="Calque_1-2" data-name="Calque 1">
    <path class="cls-1" d="M300,466.67c-8.53,0-17.06-3.25-23.57-9.76s-9.76-15.04-9.76-23.57,3.25-17.06,9.76-23.57l143.1-143.1H33.33c-18.41,0-33.33-14.92-33.33-33.33s14.92-33.33,33.33-33.33h386.19L276.43,56.9c-13.02-13.02-13.02-34.12,0-47.14,13.02-13.02,34.12-13.02,47.14,0l199.88,199.88c.48.47.94.96,1.39,1.46.02.02.04.05.06.07,0,0,0,0,0,0,4.72,5.3,7.46,11.74,8.21,18.36,0,.02,0,.05,0,.07,0,.01,0,.02,0,.03.19,1.73.25,3.46.17,5.18,0,0,0,0,0,.01v.07c-.38,7.95-3.58,15.78-9.61,21.88l-.02.02-.1.1-200,200c-6.51,6.51-15.04,9.76-23.57,9.76Z"/>
  </g>
</svg>